<?xml version="1.0" standalone="no"?>
<!DOCTYPE svg PUBLIC "-//W3C//DTD SVG 20010904//EN"
 "http://www.w3.org/TR/2001/REC-SVG-20010904/DTD/svg10.dtd">
<svg version="1.0" xmlns="http://www.w3.org/2000/svg"
 width="512.000000pt" height="512.000000pt" viewBox="0 0 512.000000 512.000000"
 preserveAspectRatio="xMidYMid meet">
<metadata>
Created by potrace 1.11, written by Peter Selinger 2001-2013
</metadata>
<g transform="translate(0.000000,512.000000) scale(0.100000,-0.100000)"
fill="#000000" stroke="none">
<path d="M620 4703 c0 -5 319 -964 709 -2133 476 -1425 715 -2126 725 -2130
26 -9 1107 -3 1115 6 6 6 226 652 236 694 1 3 4 12 7 20 4 8 117 346 252 750
135 404 381 1138 546 1630 166 492 303 902 305 910 2 8 22 69 44 135 23 65 41
120 41 122 0 2 -254 3 -563 3 l-564 0 -18 -62 c-9 -35 -21 -74 -25 -88 -9 -27
-42 -139 -46 -155 -1 -5 -34 -120 -73 -255 -40 -135 -74 -252 -76 -260 -4 -18
-165 -574 -206 -715 -17 -55 -32 -107 -34 -115 -3 -14 -83 -290 -222 -770
-110 -379 -163 -565 -163 -569 0 -3 -4 -1 -9 5 -5 5 -25 65 -44 134 -66 233
-76 265 -157 545 -45 154 -83 287 -85 295 -5 22 -104 369 -116 405 -5 17 -41
140 -80 275 -94 329 -114 400 -123 435 -1 6 -9 35 -19 65 -35 115 -89 303 -93
323 -2 11 -10 43 -19 71 -9 28 -20 65 -25 81 -5 17 -27 95 -50 175 -23 80 -43
153 -46 163 -5 16 -41 17 -565 17 -307 0 -559 -3 -559 -7z"/>
</g>
</svg>
